{
    "asset" : {
        "generator" : "Khronos glTF Blender I/O v1.6.16",
        "version" : "2.0"
    },
    "extensionsUsed" : [
        "KHR_materials_unlit"
    ],
    "scene" : 0,
    "scenes" : [
        {
            "name" : "Scene",
            "nodes" : [
                22
            ]
        }
    ],
    "nodes" : [
        {
            "mesh" : 0,
            "name" : "Object_20"
        },
        {
            "children" : [
                0
            ],
            "name" : "Cube.001_9",
            "rotation" : [
                0.3671286702156067,
                0,
                0,
                0.9301701784133911
            ],
            "scale" : [
                3.9775867462158203,
                0.7209048867225647,
                2.134495973587036
            ],
            "translation" : [
                -0.1547532081604004,
                8.848472595214844,
                -14.143844604492188
            ]
        },
        {
            "mesh" : 1,
            "name" : "Object_18"
        },
        {
            "children" : [
                2
            ],
            "name" : "Cube.002_8",
            "rotation" : [
                0.2876429855823517,
                0,
                0,
                0.9577377438545227
            ],
            "scale" : [
                1.484390377998352,
                0.6225307583808899,
                1.8432244062423706
            ],
            "translation" : [
                3.7717084884643555,
                8.35534381866455,
                -10.535305976867676
            ]
        },
        {
            "mesh" : 2,
            "name" : "Object_16"
        },
        {
            "children" : [
                4
            ],
            "name" : "Cube_7",
            "rotation" : [
                0.2876429855823517,
                0,
                0,
                0.9577377438545227
            ],
            "scale" : [
                1.484390377998352,
                0.6225307583808899,
                1.8432244062423706
            ],
            "translation" : [
                -4.122584342956543,
                8.35534381866455,
                -10.535305976867676
            ]
        },
        {
            "mesh" : 3,
            "name" : "Object_4"
        },
        {
            "children" : [
                6
            ],
            "name" : "Plane.001_1",
            "translation" : [
                0,
                1,
                0
            ]
        },
        {
            "mesh" : 4,
            "name" : "Object_6"
        },
        {
            "children" : [
                8
            ],
            "name" : "Plane.002_2",
            "translation" : [
                0,
                1,
                0
            ]
        },
        {
            "mesh" : 5,
            "name" : "Object_8"
        },
        {
            "children" : [
                10
            ],
            "name" : "Plane.003_3",
            "rotation" : [
                0,
                -0.7071068286895752,
                0,
                0.7071068286895752
            ],
            "translation" : [
                0,
                1,
                0
            ]
        },
        {
            "mesh" : 6,
            "name" : "Object_10"
        },
        {
            "children" : [
                12
            ],
            "name" : "Plane.004_4",
            "translation" : [
                0,
                0,
                -17
            ]
        },
        {
            "mesh" : 7,
            "name" : "Object_12"
        },
        {
            "children" : [
                14
            ],
            "name" : "Plane.005_5",
            "translation" : [
                0,
                0,
                -17
            ]
        },
        {
            "mesh" : 8,
            "name" : "Object_22"
        },
        {
            "children" : [
                16
            ],
            "name" : "Plane.006_10",
            "rotation" : [
                -1,
                0,
                0,
                1.747884843317834e-14
            ],
            "translation" : [
                0,
                14,
                -17
            ]
        },
        {
            "mesh" : 9,
            "name" : "Object_14"
        },
        {
            "children" : [
                18
            ],
            "name" : "Plane.007_6",
            "translation" : [
                0,
                0,
                15
            ]
        },
        {
            "children" : [
                1,
                3,
                5,
                7,
                9,
                11,
                13,
                15,
                17,
                19
            ],
            "name" : "GLTF_SceneRootNode",
            "rotation" : [
                0.7071068286895752,
                0,
                0,
                0.7071068286895752
            ]
        },
        {
            "children" : [
                20
            ],
            "name" : "root"
        },
        {
            "children" : [
                21
            ],
            "name" : "Sketchfab_model",
            "rotation" : [
                -0.7071068286895752,
                0,
                0,
                0.7071068286895752
            ]
        }
    ],
    "materials" : [
        {
            "doubleSided" : true,
            "extensions" : {
                "KHR_materials_unlit" : {}
            },
            "name" : "Material.001",
            "pbrMetallicRoughness" : {
                "baseColorTexture" : {
                    "index" : 0
                },
                "metallicFactor" : 0,
                "roughnessFactor" : 0.9
            }
        }
    ],
    "meshes" : [
        {
            "name" : "Object_8",
            "primitives" : [
                {
                    "attributes" : {
                        "POSITION" : 0,
                        "NORMAL" : 1,
                        "TEXCOORD_0" : 2
                    },
                    "indices" : 3,
                    "material" : 0
                }
            ]
        },
        {
            "name" : "Object_7",
            "primitives" : [
                {
                    "attributes" : {
                        "POSITION" : 4,
                        "NORMAL" : 5,
                        "TEXCOORD_0" : 6
                    },
                    "indices" : 7,
                    "material" : 0
                }
            ]
        },
        {
            "name" : "Object_6",
            "primitives" : [
                {
                    "attributes" : {
                        "POSITION" : 8,
                        "NORMAL" : 9,
                        "TEXCOORD_0" : 10
                    },
                    "indices" : 7,
                    "material" : 0
                }
            ]
        },
        {
            "name" : "Object_0",
            "primitives" : [
                {
                    "attributes" : {
                        "POSITION" : 11,
                        "NORMAL" : 12,
                        "TEXCOORD_0" : 13
                    },
                    "indices" : 14,
                    "material" : 0
                }
            ]
        },
        {
            "name" : "Object_1",
            "primitives" : [
                {
                    "attributes" : {
                        "POSITION" : 15,
                        "NORMAL" : 16,
                        "TEXCOORD_0" : 17
                    },
                    "indices" : 14,
                    "material" : 0
                }
            ]
        },
        {
            "name" : "Object_2",
            "primitives" : [
                {
                    "attributes" : {
                        "POSITION" : 18,
                        "NORMAL" : 19,
                        "TEXCOORD_0" : 20
                    },
                    "indices" : 21,
                    "material" : 0
                }
            ]
        },
        {
            "name" : "Object_3",
            "primitives" : [
                {
                    "attributes" : {
                        "POSITION" : 22,
                        "NORMAL" : 23,
                        "TEXCOORD_0" : 24
                    },
                    "indices" : 14,
                    "material" : 0
                }
            ]
        },
        {
            "name" : "Object_4",
            "primitives" : [
                {
                    "attributes" : {
                        "POSITION" : 25,
                        "NORMAL" : 26,
                        "TEXCOORD_0" : 27
                    },
                    "indices" : 14,
                    "material" : 0
                }
            ]
        },
        {
            "name" : "Object_9",
            "primitives" : [
                {
                    "attributes" : {
                        "POSITION" : 28,
                        "NORMAL" : 29,
                        "TEXCOORD_0" : 30
                    },
                    "indices" : 14,
                    "material" : 0
                }
            ]
        },
        {
            "name" : "Object_5",
            "primitives" : [
                {
                    "attributes" : {
                        "POSITION" : 31,
                        "NORMAL" : 32,
                        "TEXCOORD_0" : 33
                    },
                    "indices" : 14,
                    "material" : 0
                }
            ]
        }
    ],
    "textures" : [
        {
            "sampler" : 0,
            "source" : 0
        }
    ],
    "images" : [
        {
            "bufferView" : 4,
            "mimeType" : "image/png",
            "name" : "Material_baseColor"
        }
    ],
    "accessors" : [
        {
            "bufferView" : 0,
            "componentType" : 5126,
            "count" : 96,
            "max" : [
                2.2043395042419434,
                1.9509352445602417,
                1.354857325553894
            ],
            "min" : [
                -2.2043395042419434,
                -1.5811065435409546,
                -1.354857325553894
            ],
            "type" : "VEC3"
        },
        {
            "bufferView" : 1,
            "componentType" : 5126,
            "count" : 96,
            "type" : "VEC3"
        },
        {
            "bufferView" : 2,
            "componentType" : 5126,
            "count" : 96,
            "type" : "VEC2"
        },
        {
            "bufferView" : 3,
            "componentType" : 5123,
            "count" : 144,
            "type" : "SCALAR"
        },
        {
            "bufferView" : 5,
            "componentType" : 5126,
            "count" : 89,
            "max" : [
                2.2043395042419434,
                1.5448296070098877,
                1.354857325553894
            ],
            "min" : [
                -2.2043395042419434,
                -1.1750009059906006,
                -1.354857325553894
            ],
            "type" : "VEC3"
        },
        {
            "bufferView" : 6,
            "componentType" : 5126,
            "count" : 89,
            "type" : "VEC3"
        },
        {
            "bufferView" : 7,
            "componentType" : 5126,
            "count" : 89,
            "type" : "VEC2"
        },
        {
            "bufferView" : 8,
            "componentType" : 5123,
            "count" : 144,
            "type" : "SCALAR"
        },
        {
            "bufferView" : 9,
            "componentType" : 5126,
            "count" : 89,
            "max" : [
                2.2043395042419434,
                1.5448296070098877,
                1.354857325553894
            ],
            "min" : [
                -2.2043395042419434,
                -1.1750009059906006,
                -1.354857325553894
            ],
            "type" : "VEC3"
        },
        {
            "bufferView" : 10,
            "componentType" : 5126,
            "count" : 89,
            "type" : "VEC3"
        },
        {
            "bufferView" : 11,
            "componentType" : 5126,
            "count" : 89,
            "type" : "VEC2"
        },
        {
            "bufferView" : 12,
            "componentType" : 5126,
            "count" : 24,
            "max" : [
                10,
                3,
                16
            ],
            "min" : [
                -10,
                0,
                -16
            ],
            "type" : "VEC3"
        },
        {
            "bufferView" : 13,
            "componentType" : 5126,
            "count" : 24,
            "type" : "VEC3"
        },
        {
            "bufferView" : 14,
            "componentType" : 5126,
            "count" : 24,
            "type" : "VEC2"
        },
        {
            "bufferView" : 15,
            "componentType" : 5123,
            "count" : 36,
            "type" : "SCALAR"
        },
        {
            "bufferView" : 16,
            "componentType" : 5126,
            "count" : 24,
            "max" : [
                9,
                6,
                15
            ],
            "min" : [
                -9,
                3,
                -16
            ],
            "type" : "VEC3"
        },
        {
            "bufferView" : 17,
            "componentType" : 5126,
            "count" : 24,
            "type" : "VEC3"
        },
        {
            "bufferView" : 18,
            "componentType" : 5126,
            "count" : 24,
            "type" : "VEC2"
        },
        {
            "bufferView" : 19,
            "componentType" : 5126,
            "count" : 48,
            "max" : [
                15.285009384155273,
                6.227798938751221,
                9.388162612915039
            ],
            "min" : [
                -3,
                3,
                -9.388162612915039
            ],
            "type" : "VEC3"
        },
        {
            "bufferView" : 20,
            "componentType" : 5126,
            "count" : 48,
            "type" : "VEC3"
        },
        {
            "bufferView" : 21,
            "componentType" : 5126,
            "count" : 48,
            "type" : "VEC2"
        },
        {
            "bufferView" : 22,
            "componentType" : 5123,
            "count" : 60,
            "type" : "SCALAR"
        },
        {
            "bufferView" : 23,
            "componentType" : 5126,
            "count" : 24,
            "max" : [
                11,
                1,
                2
            ],
            "min" : [
                -11,
                0,
                -2
            ],
            "type" : "VEC3"
        },
        {
            "bufferView" : 24,
            "componentType" : 5126,
            "count" : 24,
            "type" : "VEC3"
        },
        {
            "bufferView" : 25,
            "componentType" : 5126,
            "count" : 24,
            "type" : "VEC2"
        },
        {
            "bufferView" : 26,
            "componentType" : 5126,
            "count" : 24,
            "max" : [
                10,
                13,
                1
            ],
            "min" : [
                -10,
                1,
                -1
            ],
            "type" : "VEC3"
        },
        {
            "bufferView" : 27,
            "componentType" : 5126,
            "count" : 24,
            "type" : "VEC3"
        },
        {
            "bufferView" : 28,
            "componentType" : 5126,
            "count" : 24,
            "type" : "VEC2"
        },
        {
            "bufferView" : 29,
            "componentType" : 5126,
            "count" : 24,
            "max" : [
                11,
                1,
                2
            ],
            "min" : [
                -11,
                0,
                -2
            ],
            "type" : "VEC3"
        },
        {
            "bufferView" : 30,
            "componentType" : 5126,
            "count" : 24,
            "type" : "VEC3"
        },
        {
            "bufferView" : 31,
            "componentType" : 5126,
            "count" : 24,
            "type" : "VEC2"
        },
        {
            "bufferView" : 32,
            "componentType" : 5126,
            "count" : 24,
            "max" : [
                11,
                1,
                2
            ],
            "min" : [
                -11,
                0,
                -2
            ],
            "type" : "VEC3"
        },
        {
            "bufferView" : 33,
            "componentType" : 5126,
            "count" : 24,
            "type" : "VEC3"
        },
        {
            "bufferView" : 34,
            "componentType" : 5126,
            "count" : 24,
            "type" : "VEC2"
        }
    ],
    "bufferViews" : [
        {
            "buffer" : 0,
            "byteLength" : 1152,
            "byteOffset" : 0
        },
        {
            "buffer" : 0,
            "byteLength" : 1152,
            "byteOffset" : 1152
        },
        {
            "buffer" : 0,
            "byteLength" : 768,
            "byteOffset" : 2304
        },
        {
            "buffer" : 0,
            "byteLength" : 288,
            "byteOffset" : 3072
        },
        {
            "buffer" : 0,
            "byteLength" : 33219,
            "byteOffset" : 3360
        },
        {
            "buffer" : 0,
            "byteLength" : 1068,
            "byteOffset" : 36580
        },
        {
            "buffer" : 0,
            "byteLength" : 1068,
            "byteOffset" : 37648
        },
        {
            "buffer" : 0,
            "byteLength" : 712,
            "byteOffset" : 38716
        },
        {
            "buffer" : 0,
            "byteLength" : 288,
            "byteOffset" : 39428
        },
        {
            "buffer" : 0,
            "byteLength" : 1068,
            "byteOffset" : 39716
        },
        {
            "buffer" : 0,
            "byteLength" : 1068,
            "byteOffset" : 40784
        },
        {
            "buffer" : 0,
            "byteLength" : 712,
            "byteOffset" : 41852
        },
        {
            "buffer" : 0,
            "byteLength" : 288,
            "byteOffset" : 42564
        },
        {
            "buffer" : 0,
            "byteLength" : 288,
            "byteOffset" : 42852
        },
        {
            "buffer" : 0,
            "byteLength" : 192,
            "byteOffset" : 43140
        },
        {
            "buffer" : 0,
            "byteLength" : 72,
            "byteOffset" : 43332
        },
        {
            "buffer" : 0,
            "byteLength" : 288,
            "byteOffset" : 43404
        },
        {
            "buffer" : 0,
            "byteLength" : 288,
            "byteOffset" : 43692
        },
        {
            "buffer" : 0,
            "byteLength" : 192,
            "byteOffset" : 43980
        },
        {
            "buffer" : 0,
            "byteLength" : 576,
            "byteOffset" : 44172
        },
        {
            "buffer" : 0,
            "byteLength" : 576,
            "byteOffset" : 44748
        },
        {
            "buffer" : 0,
            "byteLength" : 384,
            "byteOffset" : 45324
        },
        {
            "buffer" : 0,
            "byteLength" : 120,
            "byteOffset" : 45708
        },
        {
            "buffer" : 0,
            "byteLength" : 288,
            "byteOffset" : 45828
        },
        {
            "buffer" : 0,
            "byteLength" : 288,
            "byteOffset" : 46116
        },
        {
            "buffer" : 0,
            "byteLength" : 192,
            "byteOffset" : 46404
        },
        {
            "buffer" : 0,
            "byteLength" : 288,
            "byteOffset" : 46596
        },
        {
            "buffer" : 0,
            "byteLength" : 288,
            "byteOffset" : 46884
        },
        {
            "buffer" : 0,
            "byteLength" : 192,
            "byteOffset" : 47172
        },
        {
            "buffer" : 0,
            "byteLength" : 288,
            "byteOffset" : 47364
        },
        {
            "buffer" : 0,
            "byteLength" : 288,
            "byteOffset" : 47652
        },
        {
            "buffer" : 0,
            "byteLength" : 192,
            "byteOffset" : 47940
        },
        {
            "buffer" : 0,
            "byteLength" : 288,
            "byteOffset" : 48132
        },
        {
            "buffer" : 0,
            "byteLength" : 288,
            "byteOffset" : 48420
        },
        {
            "buffer" : 0,
            "byteLength" : 192,
            "byteOffset" : 48708
        }
    ],
    "samplers" : [
        {
            "magFilter" : 9729,
            "minFilter" : 9987
        }
    ],
    "buffers" : [
        {
            "byteLength" : 48900,
            "uri" : "data:application/octet-stream;base64,"
        }
    ]
}
