{
    "asset" : {
        "generator" : "Khronos glTF Blender I/O v1.6.16",
        "version" : "2.0"
    },
    "scene" : 0,
    "scenes" : [
        {
            "name" : "Scene",
            "nodes" : [
                24
            ]
        }
    ],
    "nodes" : [
        {
            "name" : "Object_20"
        },
        {
            "children" : [
                0
            ],
            "name" : "Object_19",
            "rotation" : [
                0.7071068286895752,
                0,
                0,
                0.7071068286895752
            ]
        },
        {
            "children" : [
                1
            ],
            "name" : "Sky_Dome",
            "rotation" : [
                0.7071068286895752,
                0,
                0,
                0.7071068286895752
            ]
        },
        {
            "name" : "Object_17"
        },
        {
            "children" : [
                3
            ],
            "name" : "Object_16",
            "rotation" : [
                0.7071068286895752,
                0,
                0,
                0.7071068286895752
            ]
        },
        {
            "children" : [
                4
            ],
            "name" : "\ufffd\ufffd\ufffd\ufffd\ufffd\ufffd\ufffd\ufffd\ufffd\ufffd\ufffd\ufffd_\ufffd\ufffd\ufffd\ufffd\ufffd\ufffd\ufffd\ufffd",
            "rotation" : [
                0.7071068286895752,
                0,
                0,
                0.7071068286895752
            ]
        },
        {
            "children" : [
                5
            ],
            "name" : "\ufffd\ufffd\ufffd\ufffd\ufffd\ufffd\ufffd\ufffd",
            "rotation" : [
                0.1379980891942978,
                -0.7208594679832458,
                0.15017850697040558,
                0.6623930931091309
            ],
            "translation" : [
                -3627.78466796875,
                -1585.8101806640625,
                -307.2217712402344
            ]
        },
        {
            "name" : "Object_10"
        },
        {
            "children" : [
                7
            ],
            "name" : "Object_9",
            "rotation" : [
                0.7071068286895752,
                0,
                0,
                0.7071068286895752
            ]
        },
        {
            "children" : [
                8
            ],
            "name" : "\ufffd\ufffd\ufffd\ufffd\ufffd\ufffd\ufffd\ufffd\ufffd\ufffd\ufffd\ufffd\ufffd\ufffd\ufffd\ufffd_\ufffd\ufffd\ufffd\ufffd",
            "rotation" : [
                0.7071068286895752,
                0,
                0,
                0.7071068286895752
            ]
        },
        {
            "name" : "Object_13"
        },
        {
            "children" : [
                10
            ],
            "name" : "Object_12",
            "rotation" : [
                0.7071068286895752,
                0,
                0,
                0.7071068286895752
            ]
        },
        {
            "children" : [
                11
            ],
            "name" : "\ufffd\ufffd\ufffd\ufffd\ufffd\ufffd\ufffd\ufffd\ufffd\ufffd\ufffd\ufffd\ufffd\ufffd\ufffd\ufffd\ufffd\ufffd_\ufffd\ufffd",
            "rotation" : [
                0.7071068286895752,
                0,
                0,
                0.7071068286895752
            ]
        },
        {
            "children" : [
                9,
                12
            ],
            "name" : "\ufffd\ufffd\ufffd\ufffd\ufffd\ufffd\ufffd\ufffd\ufffd\ufffd\ufffd\ufffd",
            "rotation" : [
                -0.2913431227207184,
                0.031141895800828934,
                0.009489931166172028,
                0.9560644626617432
            ],
            "translation" : [
                8019.98779296875,
                82798.046875,
                122977.1875
            ]
        },
        {
            "children" : [
                6,
                13
            ],
            "name" : "\ufffd\ufffd\ufffd\ufffd\ufffd\ufffd\ufffd\ufffd_\ufffd\ufffd\ufffd\ufffd\ufffd\ufffd\ufffd\ufffd",
            "translation" : [
                -652.0964965820312,
                356.7633972167969,
                950.5792236328125
            ]
        },
        {
            "children" : [
                2,
                14
            ],
            "name" : "Sky"
        },
        {
            "mesh" : 0,
            "name" : "Smart_TV_Metal_0"
        },
        {
            "mesh" : 1,
            "name" : "Smart_TV_Plastic_0"
        },
        {
            "mesh" : 2,
            "name" : "Smart_TV_Screen_0"
        },
        {
            "children" : [
                16,
                17,
                18
            ],
            "name" : "Smart_TV",
            "translation" : [
                0,
                199,
                0
            ]
        },
        {
            "mesh" : 3,
            "name" : "\ufffd\ufffd\ufffd\ufffd\ufffd\ufffd\ufffd\ufffd\ufffd\ufffd\ufffd\ufffd_\ufffd\ufffd\ufffd\ufffd\ufffd\ufffd_Plastic"
        },
        {
            "children" : [
                20
            ],
            "name" : "\ufffd\ufffd\ufffd\ufffd\ufffd\ufffd\ufffd\ufffd\ufffd\ufffd\ufffd\ufffd_\ufffd\ufffd\ufffd\ufffd\ufffd\ufffd",
            "translation" : [
                0,
                -100,
                0
            ]
        },
        {
            "children" : [
                15,
                19,
                21
            ],
            "name" : "RootNode"
        },
        {
            "children" : [
                22
            ],
            "name" : "dbdec5ae1a334b2a8d52910e5300dbf3.fbx",
            "rotation" : [
                0.7071068286895752,
                0,
                0,
                0.7071068286895752
            ]
        },
        {
            "children" : [
                23
            ],
            "name" : "Sketchfab_model",
            "rotation" : [
                -0.7071068286895752,
                0,
                0,
                0.7071068286895752
            ],
            "scale" : [
                0.011000653728842735,
                0.011000653728842735,
                0.011000653728842735
            ]
        }
    ],
    "materials" : [
        {
            "doubleSided" : true,
            "name" : "Metal",
            "pbrMetallicRoughness" : {
                "baseColorFactor" : [
                    0.784313976764679,
                    0.800000011920929,
                    0.8156859874725342,
                    1
                ],
                "metallicFactor" : 0.8500000238418579,
                "roughnessFactor" : 0.10000000149011612
            }
        },
        {
            "doubleSided" : true,
            "name" : "Plastic",
            "pbrMetallicRoughness" : {
                "baseColorFactor" : [
                    0.012356258928775787,
                    0.013360424898564816,
                    0.014993038959801197,
                    1
                ],
                "metallicFactor" : 0.25,
                "roughnessFactor" : 0.6000000238418579
            }
        },
        {
            "doubleSided" : true,
            "name" : "Screen",
            "pbrMetallicRoughness" : {
                "baseColorFactor" : [
                    0,
                    0,
                    0,
                    1
                ],
                "metallicFactor" : 0.5,
                "roughnessFactor" : 0.33000001311302185
            }
        }
    ],
    "meshes" : [
        {
            "name" : "Smart_TV_Metal_0",
            "primitives" : [
                {
                    "attributes" : {
                        "POSITION" : 0,
                        "NORMAL" : 1,
                        "TEXCOORD_0" : 2
                    },
                    "indices" : 3,
                    "material" : 0
                }
            ]
        },
        {
            "name" : "Smart_TV_Plastic_0",
            "primitives" : [
                {
                    "attributes" : {
                        "POSITION" : 4,
                        "NORMAL" : 5,
                        "TEXCOORD_0" : 6
                    },
                    "indices" : 7,
                    "material" : 1
                }
            ]
        },
        {
            "name" : "Smart_TV_Screen_0",
            "primitives" : [
                {
                    "attributes" : {
                        "POSITION" : 8,
                        "NORMAL" : 9,
                        "TEXCOORD_0" : 10
                    },
                    "indices" : 11,
                    "material" : 2
                }
            ]
        },
        {
            "name" : "\ufffd\ufffd\ufffd\ufffd\ufffd\ufffd\ufffd\ufffd\ufffd\ufffd\ufffd\ufffd_\ufffd\ufffd\ufffd\ufffd\ufffd\ufffd_Plastic",
            "primitives" : [
                {
                    "attributes" : {
                        "POSITION" : 12,
                        "NORMAL" : 13,
                        "TEXCOORD_0" : 14
                    },
                    "indices" : 15,
                    "material" : 1
                }
            ]
        }
    ],
    "accessors" : [
        {
            "bufferView" : 0,
            "componentType" : 5126,
            "count" : 144,
            "max" : [
                328.890380859375,
                218.8318634033203,
                78.39442443847656
            ],
            "min" : [
                -328.890380859375,
                -199.99998474121094,
                -95.17977142333984
            ],
            "type" : "VEC3"
        },
        {
            "bufferView" : 1,
            "componentType" : 5126,
            "count" : 144,
            "type" : "VEC3"
        },
        {
            "bufferView" : 2,
            "componentType" : 5126,
            "count" : 144,
            "type" : "VEC2"
        },
        {
            "bufferView" : 3,
            "componentType" : 5123,
            "count" : 294,
            "type" : "SCALAR"
        },
        {
            "bufferView" : 4,
            "componentType" : 5126,
            "count" : 107,
            "max" : [
                328.890380859375,
                218.8318634033203,
                4.4357829093933105
            ],
            "min" : [
                -328.890380859375,
                -184.3836212158203,
                -86
            ],
            "type" : "VEC3"
        },
        {
            "bufferView" : 5,
            "componentType" : 5126,
            "count" : 107,
            "type" : "VEC3"
        },
        {
            "bufferView" : 6,
            "componentType" : 5126,
            "count" : 107,
            "type" : "VEC2"
        },
        {
            "bufferView" : 7,
            "componentType" : 5123,
            "count" : 192,
            "type" : "SCALAR"
        },
        {
            "bufferView" : 8,
            "componentType" : 5126,
            "count" : 4,
            "max" : [
                320.2489929199219,
                209.84315490722656,
                2.5
            ],
            "min" : [
                -320.2489929199219,
                -152.90493774414062,
                2.5
            ],
            "type" : "VEC3"
        },
        {
            "bufferView" : 9,
            "componentType" : 5126,
            "count" : 4,
            "type" : "VEC3"
        },
        {
            "bufferView" : 10,
            "componentType" : 5126,
            "count" : 4,
            "type" : "VEC2"
        },
        {
            "bufferView" : 11,
            "componentType" : 5123,
            "count" : 6,
            "type" : "SCALAR"
        },
        {
            "bufferView" : 12,
            "componentType" : 5126,
            "count" : 24,
            "max" : [
                350,
                100,
                125
            ],
            "min" : [
                -350,
                -100,
                -125
            ],
            "type" : "VEC3"
        },
        {
            "bufferView" : 13,
            "componentType" : 5126,
            "count" : 24,
            "type" : "VEC3"
        },
        {
            "bufferView" : 14,
            "componentType" : 5126,
            "count" : 24,
            "type" : "VEC2"
        },
        {
            "bufferView" : 15,
            "componentType" : 5123,
            "count" : 36,
            "type" : "SCALAR"
        }
    ],
    "bufferViews" : [
        {
            "buffer" : 0,
            "byteLength" : 1728,
            "byteOffset" : 0
        },
        {
            "buffer" : 0,
            "byteLength" : 1728,
            "byteOffset" : 1728
        },
        {
            "buffer" : 0,
            "byteLength" : 1152,
            "byteOffset" : 3456
        },
        {
            "buffer" : 0,
            "byteLength" : 588,
            "byteOffset" : 4608
        },
        {
            "buffer" : 0,
            "byteLength" : 1284,
            "byteOffset" : 5196
        },
        {
            "buffer" : 0,
            "byteLength" : 1284,
            "byteOffset" : 6480
        },
        {
            "buffer" : 0,
            "byteLength" : 856,
            "byteOffset" : 7764
        },
        {
            "buffer" : 0,
            "byteLength" : 384,
            "byteOffset" : 8620
        },
        {
            "buffer" : 0,
            "byteLength" : 48,
            "byteOffset" : 9004
        },
        {
            "buffer" : 0,
            "byteLength" : 48,
            "byteOffset" : 9052
        },
        {
            "buffer" : 0,
            "byteLength" : 32,
            "byteOffset" : 9100
        },
        {
            "buffer" : 0,
            "byteLength" : 12,
            "byteOffset" : 9132
        },
        {
            "buffer" : 0,
            "byteLength" : 288,
            "byteOffset" : 9144
        },
        {
            "buffer" : 0,
            "byteLength" : 288,
            "byteOffset" : 9432
        },
        {
            "buffer" : 0,
            "byteLength" : 192,
            "byteOffset" : 9720
        },
        {
            "buffer" : 0,
            "byteLength" : 72,
            "byteOffset" : 9912
        }
    ],
    "buffers" : [
        {
            "byteLength" : 9984,
            "uri" : "data:application/octet-stream;base64,"
        }
    ]
}
